<svg id="Слой_4" data-name="Слой 4" xmlns="http://www.w3.org/2000/svg" viewBox="0 0 500 500"><defs><style>.cls-1{fill:#fff;}</style></defs><polygon class="cls-1" points="127.24 349.5 249.48 137.77 371.73 349.5 127.24 349.5"/><path d="M249.48,138.77l60.69,105.11L370.86,349H128.1l60.69-105.12,60.69-105.11m0-2L187.93,243.38,126.37,350H372.59L311,243.38,249.48,136.77Z"/><path class="cls-1" d="M249.16,434.5a25.69,25.69,0,0,1-25.66-25.66V335.5h52v73.34a25.69,25.69,0,0,1-25.66,25.66Z"/><path d="M275,336v72.84A25.19,25.19,0,0,1,249.84,434h-.68A25.19,25.19,0,0,1,224,408.84V336h51m1-1H223v73.84A26.16,26.16,0,0,0,249.16,435h.68A26.16,26.16,0,0,0,276,408.84V335Z"/><rect class="cls-1" x="209.5" y="330.5" width="81" height="17"/><path class="cls-1" d="M290,331v16H210V331h80m1-1H209v18h82V330Z"/><g id="Слой_2" data-name="Слой 2"><polygon class="cls-1" points="165.74 239.5 249.94 93.65 334.15 239.5 165.74 239.5"/><path d="M249.94,94.65l41.68,72.17L333.29,239H166.6l41.67-72.18,41.67-72.17m0-2-42.53,73.67L164.87,240H335l-42.54-73.68L249.94,92.65Z"/></g><rect class="cls-1" x="191.5" y="222.5" width="116" height="45"/><path class="cls-1" d="M307,223v44H192V223H307m1-1H191v46H308V222Z"/><polygon class="cls-1" points="194.87 161.5 249.81 66.65 304.76 161.5 194.87 161.5"/><path d="M249.81,67.64l27.05,46.69,27,46.67H195.73l27-46.67,27-46.69m0-2-27.9,48.17L194,162H305.63l-27.91-48.18L249.81,65.65Z"/><rect class="cls-1" x="211.5" y="149.5" width="77" height="20"/><path class="cls-1" d="M288,150v19H212V150h76m1-1H211v21h78V149Z"/></svg>